<svg width="364" height="73" viewBox="0 0 364 73" fill="none" xmlns="http://www.w3.org/2000/svg">
<path d="M23.58 40.6606C23.82 43.3006 23.94 44.8806 23.94 45.4006C23.94 46.2806 23.58 46.7206 22.86 46.7206C22.14 46.7206 21.74 46.4006 21.66 45.7606C21.66 45.6406 21.62 45.3406 21.54 44.8606C21.5 44.3806 21.44 43.6606 21.36 42.7006C21.28 41.7406 21.2 40.8406 21.12 40.0006L20.94 39.9406C18.86 39.9406 17.82 41.1606 17.82 43.6006C17.82 45.4006 18.78 46.9806 20.7 48.3406C22.62 49.6606 24.58 50.3206 26.58 50.3206C28.58 50.3206 30.88 49.4006 33.48 47.5606C32.72 47.0406 31.64 46.2406 30.24 45.1606C27.28 42.8406 25.06 41.3406 23.58 40.6606ZM20.52 14.0806C20.96 14.0806 21.28 14.3806 21.48 14.9806C21.72 15.5406 21.84 16.1006 21.84 16.6606C21.84 17.2206 22.28 23.3606 23.16 35.0806C24.48 34.6806 25.72 34.4806 26.88 34.4806C28.08 34.4806 29.32 34.7406 30.6 35.2606C31.88 35.7406 32.86 36.2006 33.54 36.6406C34.22 37.0806 35.28 37.8606 36.72 38.9806C38.2 40.1006 39.12 40.7806 39.48 41.0206C40.52 39.1406 41.04 37.1806 41.04 35.1406C41.04 33.0606 40.06 30.4006 38.1 27.1606C36.18 23.8806 33.82 20.7606 31.02 17.8006C28.26 14.8406 25.16 12.3006 21.72 10.1806C18.28 8.06063 15.22 7.00063 12.54 7.00063C10.5 7.00063 8.40004 8.02063 6.24004 10.0606C4.56004 11.8606 3.36004 13.5006 2.64004 14.9806C2.44004 15.3406 2.18004 15.5206 1.86004 15.5206C1.50004 15.5206 1.20004 15.4206 0.960039 15.2206C0.680039 14.9806 0.540039 14.7206 0.540039 14.4406L0.600039 14.0206C1.60004 12.1806 3.64004 9.80063 6.72004 6.88063C8.24004 5.40063 9.96004 4.16063 11.88 3.16062C13.84 2.12063 15.74 1.60063 17.58 1.60063C19.46 1.60063 21.64 2.08063 24.12 3.04063C26.6 4.00063 29.08 5.40063 31.56 7.24063C34.04 9.04063 36.32 11.1006 38.4 13.4206C40.52 15.7006 42.22 18.3406 43.5 21.3406C44.82 24.3006 45.48 27.4406 45.48 30.7606C45.48 34.0406 44.18 37.9006 41.58 42.3406C43.06 43.1806 44.5 43.6006 45.9 43.6006C46.34 43.6006 46.92 43.3606 47.64 42.8806C48.36 42.3606 48.86 42.1006 49.14 42.1006C49.7 42.1006 49.98 42.3806 49.98 42.9406C49.98 44.0606 48.86 45.6006 46.62 47.5606C44.42 49.4806 42.24 50.4406 40.08 50.4406C38.96 50.4406 37.64 50.0406 36.12 49.2406C30.84 54.5206 25.14 57.1606 19.02 57.1606C16.78 57.1606 15.06 56.5606 13.86 55.3606C12.7 54.1606 12.12 52.4206 12.12 50.1406C12.12 47.8606 12.92 45.3206 14.52 42.5206C16.12 39.7206 18.2 37.6006 20.76 36.1606C19.68 24.2806 19.12 18.2206 19.08 17.9806C19.08 17.7406 18.94 17.5206 18.66 17.3206C18.42 17.0806 18.3 16.7606 18.3 16.3606C18.3 15.9206 18.56 15.4406 19.08 14.9206C19.6 14.3606 20.08 14.0806 20.52 14.0806Z" fill="white"/>
<path d="M66.0216 41.3206L65.7816 43.0006C65.7816 43.7206 66.0816 44.4806 66.6816 45.2806C67.3216 46.0406 68.0616 46.4206 68.9016 46.4206C69.5416 46.4206 70.0616 46.2806 70.4616 46.0006C71.3416 45.4006 71.8816 45.0006 72.0816 44.8006C72.3216 44.5606 72.6816 44.4406 73.1616 44.4406C73.6816 44.4406 73.9416 44.6206 73.9416 44.9806C73.9416 45.3806 73.0016 46.6406 71.1216 48.7606C70.5216 49.4406 69.6416 50.1606 68.4816 50.9206C67.3216 51.6806 66.2816 52.0606 65.3616 52.0606C64.4816 52.0606 63.8016 51.9006 63.3216 51.5806C62.8816 51.3006 62.5616 50.8406 62.3616 50.2006C62.1216 49.3206 62.0016 48.2406 62.0016 46.9606C62.0016 46.8006 61.9016 46.7206 61.7016 46.7206C61.5016 46.7206 61.0416 47.1206 60.3216 47.9206C58.0816 50.2406 56.2616 51.4006 54.8616 51.4006C53.5016 51.4006 52.4416 51.0406 51.6816 50.3206C50.9616 49.6006 50.6016 48.6806 50.6016 47.5606C50.6016 45.6006 51.1216 43.7406 52.1616 41.9806C53.2016 40.1806 54.4416 38.7406 55.8816 37.6606C59.0816 35.3006 61.5616 34.1206 63.3216 34.1206C65.9616 34.2006 67.2816 35.1406 67.2816 36.9406C67.2816 37.5806 67.0016 38.2206 66.4416 38.8606C65.8816 39.4606 65.3616 39.7606 64.8816 39.7606C64.4016 39.7606 63.7416 39.3406 62.9016 38.5006C62.0616 37.6606 61.1416 37.2406 60.1416 37.2406C59.1416 37.2406 58.3216 37.6606 57.6816 38.5006C57.0416 39.3006 56.7216 40.3406 56.7216 41.6206C56.7216 43.7006 57.8216 44.7406 60.0216 44.7406C60.9016 44.7406 61.6216 44.5206 62.1816 44.0806C62.7816 43.6406 63.2016 43.1606 63.4416 42.6406C64.1216 41.2806 64.7416 40.6006 65.3016 40.6006C65.7816 40.6006 66.0216 40.8406 66.0216 41.3206Z" fill="white"/>
<path d="M72.7655 41.1406L71.1455 41.2606C70.4255 41.2606 70.0655 41.0806 70.0655 40.7206C70.0655 40.1606 70.7655 39.1006 72.1655 37.5406C73.6055 35.9406 74.8855 35.1406 76.0055 35.1406C76.4855 35.1406 76.9055 35.2806 77.2655 35.5606C77.6655 35.8406 77.8855 36.1806 77.9255 36.5806L78.2255 39.2806C78.3455 39.4406 78.4655 39.5206 78.5855 39.5206C78.7055 39.5206 79.0255 39.2006 79.5455 38.5606C81.2255 36.6006 82.7255 35.6206 84.0455 35.6206C84.5655 35.6206 84.9855 35.7006 85.3055 35.8606C85.6255 36.0206 85.9855 36.3406 86.3855 36.8206C86.8255 37.2606 87.0655 37.5006 87.1055 37.5406C87.3855 37.4206 87.6655 37.3606 87.9455 37.3606C88.3855 37.3606 88.6055 37.6406 88.6055 38.2006C88.6055 38.7206 87.8255 39.7206 86.2655 41.2006C84.7055 42.6406 83.5455 43.3606 82.7855 43.3606C82.0255 43.3606 81.3855 43.0206 80.8655 42.3406C80.3455 41.6606 79.9655 41.3206 79.7255 41.3206C78.8055 41.3206 78.3455 41.8006 78.3455 42.7606C78.3455 43.4806 78.6655 44.7006 79.3055 46.4206C79.9855 48.1406 80.3255 49.1606 80.3255 49.4806C80.3255 50.2806 79.9055 50.9006 79.0655 51.3406C78.2655 51.8206 77.3655 52.0606 76.3655 52.0606C75.4055 52.0606 74.6255 51.9006 74.0255 51.5806C73.4255 51.2606 73.1255 50.8206 73.1255 50.2606L74.8055 43.0006C74.8055 41.7606 74.1255 41.1406 72.7655 41.1406Z" fill="white"/>
<path d="M89.7188 30.3406C89.1188 29.6606 88.8188 28.8206 88.8188 27.8206C88.8188 26.8206 89.1188 25.9806 89.7188 25.3006C90.3588 24.6206 91.1388 24.2806 92.0588 24.2806C92.9788 24.2806 93.7388 24.6206 94.3388 25.3006C94.9788 25.9806 95.2988 26.8206 95.2988 27.8206C95.2988 28.8206 94.9788 29.6606 94.3388 30.3406C93.7388 31.0206 92.9788 31.3606 92.0588 31.3606C91.1388 31.3606 90.3588 31.0206 89.7188 30.3406ZM102.199 43.4206C102.599 43.1006 102.959 42.9406 103.279 42.9406C103.839 42.9406 104.119 43.3006 104.119 44.0206C104.119 45.0206 102.879 46.5206 100.399 48.5206C97.9188 50.4806 95.7788 51.4606 93.9788 51.4606C92.1788 51.4606 90.7788 50.8206 89.7788 49.5406C88.7788 48.2606 88.2788 46.6206 88.2788 44.6206C88.2788 42.5806 88.6188 40.6206 89.2988 38.7406C89.9788 36.8606 90.6588 35.9206 91.3388 35.9206C91.6588 35.9606 91.8188 36.4606 91.8188 37.4206C91.8188 38.3406 91.9588 39.3606 92.2388 40.4806C92.5188 41.6006 93.1188 42.6806 94.0388 43.7206C94.9988 44.7206 96.2188 45.2206 97.6988 45.2206C99.2188 45.2206 100.719 44.6206 102.199 43.4206Z" fill="white"/>
<path d="M131.261 43.1806C130.461 44.6206 128.941 46.2806 126.701 48.1606C124.501 50.0006 122.561 50.9206 120.881 50.9206C117.721 50.9206 116.061 48.9806 115.901 45.1006C115.901 44.7406 115.821 44.5606 115.661 44.5606C115.581 44.5606 115.161 45.0406 114.401 46.0006C113.681 46.9606 112.661 47.9406 111.341 48.9406C110.061 49.9006 108.721 50.3806 107.321 50.3806C105.961 50.3806 104.861 49.9606 104.021 49.1206C103.221 48.2806 102.821 47.1606 102.821 45.7606C102.821 44.3206 103.241 42.4406 104.081 40.1206C104.921 37.8006 105.741 36.6406 106.541 36.6406C106.941 36.6806 107.261 36.8806 107.501 37.2406C107.781 37.6006 107.921 38.0006 107.921 38.4406C107.961 38.8806 108.061 39.4206 108.221 40.0606C108.381 40.7006 108.821 41.4206 109.541 42.2206C110.261 42.9806 111.201 43.3606 112.361 43.3606C114.361 43.3606 116.001 41.6406 117.281 38.2006C117.281 38.1606 117.321 38.0606 117.401 37.9006C117.481 37.7006 117.541 37.5606 117.581 37.4806C117.621 37.3606 117.681 37.2206 117.761 37.0606C117.841 36.8606 117.921 36.7206 118.001 36.6406C118.561 36.2006 119.021 36.2006 119.381 36.6406C119.621 36.9606 119.761 37.5406 119.801 38.3806C119.801 39.6606 120.341 40.9206 121.421 42.1606C122.541 43.3606 123.981 43.9606 125.741 43.9606C127.501 43.9606 128.901 43.4406 129.941 42.4006C130.341 41.9206 130.741 41.6806 131.141 41.6806C131.421 41.6806 131.561 41.8406 131.561 42.1606C131.561 42.4806 131.461 42.8206 131.261 43.1806Z" fill="white"/>
<path d="M145.317 45.1606C145.637 45.1606 146.157 44.9206 146.877 44.4406C147.597 43.9606 148.177 43.4806 148.617 43.0006L149.277 42.3406C149.557 42.0606 149.837 41.9206 150.117 41.9206C150.597 41.9206 150.837 42.2006 150.837 42.7606C150.837 42.9606 150.817 43.1206 150.777 43.2406C149.737 45.7606 147.817 47.7806 145.017 49.3006C142.217 50.8606 139.717 51.6406 137.517 51.6406C133.237 51.6406 131.097 49.9606 131.097 46.6006C131.097 46.1606 131.617 45.4606 132.657 44.5006C133.697 43.5406 134.457 42.9406 134.937 42.7006C135.257 42.4606 135.497 42.3406 135.657 42.3406C135.857 42.3406 136.017 42.4206 136.137 42.5806C136.257 42.7406 136.397 42.9406 136.557 43.1806C136.717 43.4206 136.857 43.6206 136.977 43.7806C137.097 43.9406 137.257 44.1606 137.457 44.4406C137.657 44.7206 137.857 44.9606 138.057 45.1606C138.297 45.3206 138.557 45.4806 138.837 45.6406C139.357 46.0406 139.897 46.2406 140.457 46.2406C141.057 46.2406 141.357 45.9006 141.357 45.2206C141.357 43.5406 140.737 42.1006 139.497 40.9006C138.257 39.6606 137.217 39.0406 136.377 39.0406C136.177 39.0406 135.977 39.1606 135.777 39.4006L133.557 41.6206C133.197 41.9806 132.937 42.1606 132.777 42.1606C132.177 42.1606 131.877 41.9006 131.877 41.3806C136.157 36.1406 138.697 33.5206 139.497 33.5206C140.617 33.5206 141.897 34.2806 143.337 35.8006C144.777 37.3206 145.497 38.8406 145.497 40.3606C145.497 41.8006 145.377 42.9006 145.137 43.6606C144.937 44.4206 144.837 44.8606 144.837 44.9806C144.837 45.1006 144.997 45.1606 145.317 45.1606Z" fill="white"/>
<path d="M155.84 67.0006C156.76 67.0006 157.46 66.0406 157.94 64.1206C158.46 62.2006 158.72 60.3006 158.72 58.4206C158.72 56.5806 158.4 54.7606 157.76 52.9606C154.88 56.0406 153.44 59.1806 153.44 62.3806C153.44 63.7406 153.68 64.8406 154.16 65.6806C154.68 66.5606 155.24 67.0006 155.84 67.0006ZM152.9 38.8606L150.62 39.4606C150.18 39.4606 149.96 39.2806 149.96 38.9206C149.96 37.8406 150.94 36.7606 152.9 35.6806C154.86 34.5606 156.36 34.0006 157.4 34.0006C158.48 34.0006 159.26 34.2606 159.74 34.7806C160.22 35.2606 160.46 35.8806 160.46 36.6406C160.46 38.2406 159.32 40.3206 157.04 42.8806C156.96 42.9606 156.92 43.0606 156.92 43.1806C156.92 43.5006 157.2 43.6606 157.76 43.6606C159.48 44.0606 160.8 45.3406 161.72 47.5006C162.96 46.5406 164 45.8206 164.84 45.3406C165.72 44.8206 166.22 44.5606 166.34 44.5606C166.86 44.5606 167.12 44.8406 167.12 45.4006C167.08 45.5606 166.64 45.9206 165.8 46.4806C165 47.0006 164.46 47.3606 164.18 47.5606L162.2 49.0006C162.44 49.8406 162.56 50.8006 162.56 51.8806C162.56 53.0006 162.34 54.6606 161.9 56.8606C161.46 59.1006 160.84 61.4606 160.04 63.9406C159.24 66.4206 158.1 68.5406 156.62 70.3006C155.18 72.0606 153.6 72.9406 151.88 72.9406C150.8 72.9406 149.92 72.4806 149.24 71.5606C148.56 70.6806 148.22 69.6606 148.22 68.5006C148.22 63.2206 151.18 57.5806 157.1 51.5806C156.02 49.4606 154.6 48.4006 152.84 48.4006C152.04 48.4006 151.38 48.6006 150.86 49.0006C150.34 49.4006 149.92 49.6006 149.6 49.6006C149.32 49.6006 149.18 49.4006 149.18 49.0006C149.18 48.6406 149.26 48.3806 149.42 48.2206C149.58 48.0606 149.88 47.7606 150.32 47.3206C150.8 46.8806 151.18 46.5206 151.46 46.2406C151.74 45.9206 152.12 45.5006 152.6 44.9806C153.08 44.4606 153.44 44.0006 153.68 43.6006C154.4 42.5206 154.76 41.6806 154.76 41.0806C154.76 40.4406 154.58 39.9206 154.22 39.5206C153.9 39.0806 153.46 38.8606 152.9 38.8606Z" fill="white"/>
<path d="M203.153 22.5406C205.113 20.2206 206.093 17.7206 206.093 15.0406C206.093 13.0806 205.593 11.3006 204.593 9.70063C203.593 8.06063 202.093 6.84063 200.093 6.04063C199.373 5.68063 198.613 5.50063 197.813 5.50063C195.453 5.50063 193.193 6.58063 191.033 8.74063C188.873 10.9006 187.173 13.5206 185.933 16.6006C184.733 19.6806 184.133 22.8006 184.133 25.9606C184.133 29.1206 184.573 32.1206 185.453 34.9606C186.333 37.8006 187.413 39.2206 188.693 39.2206C189.053 39.2206 189.273 39.0006 189.353 38.5606C190.193 35.4406 191.053 29.4406 191.933 20.5606C192.253 17.3206 192.433 15.6806 192.473 15.6406C193.953 14.6406 194.873 14.1406 195.233 14.1406C195.473 14.1406 195.593 14.4406 195.593 15.0406C195.593 15.6406 195.413 16.7606 195.053 18.4006C193.693 24.6806 191.833 34.9806 189.473 49.3006C189.313 49.9406 188.973 50.2606 188.453 50.2606C186.493 50.2606 184.793 47.8406 183.353 43.0006C181.913 38.1606 181.193 33.2606 181.193 28.3006C181.193 23.3406 182.173 18.7606 184.133 14.5606C186.093 10.3206 188.793 6.94063 192.233 4.42063C195.713 1.90063 199.513 0.640625 203.633 0.640625C206.513 0.640625 208.853 1.60063 210.653 3.52063C212.453 5.40063 213.353 7.78063 213.353 10.6606C213.353 13.5406 212.573 16.0206 211.013 18.1006C209.453 20.1806 207.653 21.8406 205.613 23.0806C207.813 23.8406 209.673 25.2006 211.193 27.1606C213.953 30.6406 215.333 34.3006 215.333 38.1406C215.333 41.9406 213.913 45.4006 211.073 48.5206C208.233 51.6006 205.053 53.1406 201.533 53.1406C198.853 53.1406 196.493 51.8006 194.453 49.1206C192.453 46.4406 191.453 44.2206 191.453 42.4606C191.453 42.1406 191.633 41.8606 191.993 41.6206C192.393 41.3806 193.493 40.7806 195.293 39.8206C197.093 38.8206 198.093 38.3006 198.293 38.2606C198.493 38.2206 198.713 38.2006 198.953 38.2006C199.073 38.2406 199.233 38.4406 199.433 38.8006C200.193 40.6806 201.333 42.6606 202.853 44.7406C204.373 46.8206 205.893 47.8606 207.413 47.8606C208.733 47.8606 209.393 46.7006 209.393 44.3806C209.393 42.0206 208.733 39.5406 207.413 36.9406C206.133 34.3406 204.593 32.1606 202.793 30.4006C200.993 28.6006 199.433 27.7006 198.113 27.7006C197.673 27.7006 197.053 27.8606 196.253 28.1806C195.493 28.4606 194.973 28.6006 194.693 28.6006C193.973 28.4406 193.613 27.8606 193.613 26.8606C193.613 25.8206 194.333 24.8206 195.773 23.8606C197.253 22.8606 199.033 22.3606 201.113 22.3606C201.793 22.3606 202.473 22.4206 203.153 22.5406Z" fill="white"/>
<path d="M219.094 30.3406C218.494 29.6606 218.194 28.8206 218.194 27.8206C218.194 26.8206 218.494 25.9806 219.094 25.3006C219.734 24.6206 220.514 24.2806 221.434 24.2806C222.354 24.2806 223.114 24.6206 223.714 25.3006C224.354 25.9806 224.674 26.8206 224.674 27.8206C224.674 28.8206 224.354 29.6606 223.714 30.3406C223.114 31.0206 222.354 31.3606 221.434 31.3606C220.514 31.3606 219.734 31.0206 219.094 30.3406ZM231.574 43.4206C231.974 43.1006 232.334 42.9406 232.654 42.9406C233.214 42.9406 233.494 43.3006 233.494 44.0206C233.494 45.0206 232.254 46.5206 229.774 48.5206C227.294 50.4806 225.154 51.4606 223.354 51.4606C221.554 51.4606 220.154 50.8206 219.154 49.5406C218.154 48.2606 217.654 46.6206 217.654 44.6206C217.654 42.5806 217.994 40.6206 218.674 38.7406C219.354 36.8606 220.034 35.9206 220.714 35.9206C221.034 35.9606 221.194 36.4606 221.194 37.4206C221.194 38.3406 221.334 39.3606 221.614 40.4806C221.894 41.6006 222.494 42.6806 223.414 43.7206C224.374 44.7206 225.594 45.2206 227.074 45.2206C228.594 45.2206 230.094 44.6206 231.574 43.4206Z" fill="white"/>
<path d="M247.856 45.1606C248.176 45.1606 248.696 44.9206 249.416 44.4406C250.136 43.9606 250.716 43.4806 251.156 43.0006L251.816 42.3406C252.096 42.0606 252.376 41.9206 252.656 41.9206C253.136 41.9206 253.376 42.2006 253.376 42.7606C253.376 42.9606 253.356 43.1206 253.316 43.2406C252.276 45.7606 250.356 47.7806 247.556 49.3006C244.756 50.8606 242.256 51.6406 240.056 51.6406C235.776 51.6406 233.636 49.9606 233.636 46.6006C233.636 46.1606 234.156 45.4606 235.196 44.5006C236.236 43.5406 236.996 42.9406 237.476 42.7006C237.796 42.4606 238.036 42.3406 238.196 42.3406C238.396 42.3406 238.556 42.4206 238.676 42.5806C238.796 42.7406 238.936 42.9406 239.096 43.1806C239.256 43.4206 239.396 43.6206 239.516 43.7806C239.636 43.9406 239.796 44.1606 239.996 44.4406C240.196 44.7206 240.396 44.9606 240.596 45.1606C240.836 45.3206 241.096 45.4806 241.376 45.6406C241.896 46.0406 242.436 46.2406 242.996 46.2406C243.596 46.2406 243.896 45.9006 243.896 45.2206C243.896 43.5406 243.276 42.1006 242.036 40.9006C240.796 39.6606 239.756 39.0406 238.916 39.0406C238.716 39.0406 238.516 39.1606 238.316 39.4006L236.096 41.6206C235.736 41.9806 235.476 42.1606 235.316 42.1606C234.716 42.1606 234.416 41.9006 234.416 41.3806C238.696 36.1406 241.236 33.5206 242.036 33.5206C243.156 33.5206 244.436 34.2806 245.876 35.8006C247.316 37.3206 248.036 38.8406 248.036 40.3606C248.036 41.8006 247.916 42.9006 247.676 43.6606C247.476 44.4206 247.376 44.8606 247.376 44.9806C247.376 45.1006 247.536 45.1606 247.856 45.1606Z" fill="white"/>
<path d="M252.919 35.2606C253.879 32.8606 254.779 30.1206 255.619 27.0406C256.459 23.9206 256.879 21.6206 256.879 20.1406C256.879 18.6606 256.739 17.5806 256.459 16.9006C256.219 16.2206 255.919 15.8806 255.559 15.8806C254.239 15.8806 253.359 19.5606 252.919 26.9206V35.2606ZM268.879 41.6806C268.679 41.6806 268.479 41.8006 268.279 42.0406C268.119 42.2406 267.899 42.5006 267.619 42.8206C267.339 43.1006 266.739 43.5006 265.819 44.0206C264.899 44.5006 263.959 44.7406 262.999 44.7406C261.279 44.7406 259.799 44.0606 258.559 42.7006C257.359 41.3006 256.759 40.2606 256.759 39.5806C256.759 38.8606 256.659 38.4606 256.459 38.3806C256.259 38.3806 255.999 38.6806 255.679 39.2806C254.839 40.8406 254.419 42.6806 254.419 44.8006C254.419 46.8806 254.979 48.5006 256.099 49.6606C257.259 50.8606 258.479 51.4606 259.759 51.4606C261.959 51.4606 264.159 50.3206 266.359 48.0406C268.559 45.7206 269.659 43.9806 269.659 42.8206C269.659 42.0606 269.399 41.6806 268.879 41.6806ZM252.979 38.1406V38.5006C252.979 38.9806 253.019 39.2206 253.099 39.2206C253.219 39.2206 253.359 39.1406 253.519 38.9806C254.399 36.4606 255.499 34.2806 256.819 32.4406C258.139 30.5606 259.579 29.6206 261.139 29.6206C262.539 29.6206 263.239 30.5606 263.239 32.4406C263.239 33.1206 262.899 34.0606 262.219 35.2606C261.579 36.4206 260.959 37.0006 260.359 37.0006C260.119 37.0006 259.879 36.8206 259.639 36.4606C259.399 36.0606 258.979 35.8606 258.379 35.8606C257.219 35.8606 256.239 36.3806 255.439 37.4206C254.639 38.4206 254.059 39.7206 253.699 41.3206C253.139 44.0406 252.859 46.6406 252.859 49.1206C252.859 50.3206 252.319 50.9206 251.239 50.9206C251.039 50.9206 250.939 50.7406 250.939 50.3806C251.099 47.7806 251.179 44.5206 251.179 40.6006V32.0806C251.179 24.6806 251.439 19.6406 251.959 16.9606C252.559 14.0006 253.319 12.0806 254.239 11.2006C254.799 10.6806 255.459 10.4206 256.219 10.4206C258.379 10.4206 259.459 12.0406 259.459 15.2806C259.459 18.5206 258.699 22.5006 257.179 27.2206C255.699 31.9406 254.299 35.5806 252.979 38.1406Z" fill="white"/>
<path d="M295.968 43.1806C295.168 44.6206 293.648 46.2806 291.408 48.1606C289.208 50.0006 287.268 50.9206 285.588 50.9206C282.428 50.9206 280.768 48.9806 280.608 45.1006C280.608 44.7406 280.528 44.5606 280.368 44.5606C280.288 44.5606 279.868 45.0406 279.108 46.0006C278.388 46.9606 277.368 47.9406 276.048 48.9406C274.768 49.9006 273.428 50.3806 272.028 50.3806C270.668 50.3806 269.568 49.9606 268.728 49.1206C267.928 48.2806 267.528 47.1606 267.528 45.7606C267.528 44.3206 267.948 42.4406 268.788 40.1206C269.628 37.8006 270.448 36.6406 271.248 36.6406C271.648 36.6806 271.968 36.8806 272.208 37.2406C272.488 37.6006 272.628 38.0006 272.628 38.4406C272.668 38.8806 272.768 39.4206 272.928 40.0606C273.088 40.7006 273.528 41.4206 274.248 42.2206C274.968 42.9806 275.908 43.3606 277.068 43.3606C279.068 43.3606 280.708 41.6406 281.988 38.2006C281.988 38.1606 282.028 38.0606 282.108 37.9006C282.188 37.7006 282.248 37.5606 282.288 37.4806C282.328 37.3606 282.388 37.2206 282.468 37.0606C282.548 36.8606 282.628 36.7206 282.708 36.6406C283.268 36.2006 283.728 36.2006 284.088 36.6406C284.328 36.9606 284.468 37.5406 284.508 38.3806C284.508 39.6606 285.048 40.9206 286.128 42.1606C287.248 43.3606 288.688 43.9606 290.448 43.9606C292.208 43.9606 293.608 43.4406 294.648 42.4006C295.048 41.9206 295.448 41.6806 295.848 41.6806C296.128 41.6806 296.268 41.8406 296.268 42.1606C296.268 42.4806 296.168 42.8206 295.968 43.1806Z" fill="white"/>
<path d="M302.344 40.9006C301.224 40.9006 300.404 42.9606 299.884 47.0806C300.924 48.3206 302.144 48.9406 303.544 48.9406C304.184 48.9406 304.904 48.7406 305.704 48.3406C306.024 47.3806 306.184 46.3806 306.184 45.3406C306.184 44.3006 305.764 43.3006 304.924 42.3406C304.084 41.3806 303.224 40.9006 302.344 40.9006ZM297.544 44.3806L297.964 36.8206C297.964 36.5806 297.884 36.4606 297.724 36.4606C297.604 36.4606 297.404 36.6406 297.124 37.0006C296.884 37.3606 296.544 37.5406 296.104 37.5406C295.664 37.5406 295.444 37.4006 295.444 37.1206C295.444 36.8406 295.624 36.5006 295.984 36.1006C296.344 35.6606 296.744 34.9006 297.184 33.8206C297.664 32.7006 298.084 31.7806 298.444 31.0606C298.804 30.3006 299.144 29.9206 299.464 29.9206C299.904 29.9206 300.244 30.1206 300.484 30.5206C300.724 30.8806 300.844 31.2206 300.844 31.5406C300.844 31.8606 300.664 32.9406 300.304 34.7806C299.944 36.6206 299.764 37.9806 299.764 38.8606C299.764 39.7006 299.864 40.1206 300.064 40.1206C300.144 40.1206 300.504 39.7006 301.144 38.8606C301.824 37.9806 302.624 37.1206 303.544 36.2806C304.504 35.4006 305.384 34.9606 306.184 34.9606C309.144 34.9606 310.624 36.6606 310.624 40.0606C310.624 42.4206 309.964 44.5806 308.644 46.5406C310.644 45.1406 312.464 43.6806 314.104 42.1606L314.944 41.3806C315.424 41.3806 315.664 41.5206 315.664 41.8006C315.664 42.4806 314.804 43.6206 313.084 45.2206C311.404 46.7806 309.224 48.3406 306.544 49.9006C303.904 51.4606 301.464 52.4806 299.224 52.9606C299.144 54.9606 299.104 56.5806 299.104 57.8206C299.104 59.0606 299.164 60.1606 299.284 61.1206C299.444 62.1206 299.524 62.8406 299.524 63.2806C299.524 63.7606 299.344 64.1406 298.984 64.4206C298.624 64.7406 298.244 64.9006 297.844 64.9006C297.324 64.9006 297.044 64.5606 297.004 63.8806C296.964 63.2006 296.944 61.5406 296.944 58.9006C296.944 56.2606 296.964 54.3806 297.004 53.2606C295.924 53.2606 295.064 52.7606 294.424 51.7606C293.784 50.8006 293.464 49.8806 293.464 49.0006C293.464 48.1206 293.844 47.1406 294.604 46.0606C295.404 44.9806 296.384 44.4206 297.544 44.3806Z" fill="white"/>
<path d="M328.598 45.1606C328.918 45.1606 329.438 44.9206 330.158 44.4406C330.878 43.9606 331.458 43.4806 331.898 43.0006L332.558 42.3406C332.838 42.0606 333.118 41.9206 333.398 41.9206C333.878 41.9206 334.118 42.2006 334.118 42.7606C334.118 42.9606 334.098 43.1206 334.058 43.2406C333.018 45.7606 331.098 47.7806 328.298 49.3006C325.498 50.8606 322.998 51.6406 320.798 51.6406C316.518 51.6406 314.378 49.9606 314.378 46.6006C314.378 46.1606 314.898 45.4606 315.938 44.5006C316.978 43.5406 317.738 42.9406 318.218 42.7006C318.538 42.4606 318.778 42.3406 318.938 42.3406C319.138 42.3406 319.298 42.4206 319.418 42.5806C319.538 42.7406 319.678 42.9406 319.838 43.1806C319.998 43.4206 320.138 43.6206 320.258 43.7806C320.378 43.9406 320.538 44.1606 320.738 44.4406C320.938 44.7206 321.138 44.9606 321.338 45.1606C321.578 45.3206 321.838 45.4806 322.118 45.6406C322.638 46.0406 323.178 46.2406 323.738 46.2406C324.338 46.2406 324.638 45.9006 324.638 45.2206C324.638 43.5406 324.018 42.1006 322.778 40.9006C321.538 39.6606 320.498 39.0406 319.658 39.0406C319.458 39.0406 319.258 39.1606 319.058 39.4006L316.838 41.6206C316.478 41.9806 316.218 42.1606 316.058 42.1606C315.458 42.1606 315.158 41.9006 315.158 41.3806C319.438 36.1406 321.978 33.5206 322.778 33.5206C323.898 33.5206 325.178 34.2806 326.618 35.8006C328.058 37.3206 328.778 38.8406 328.778 40.3606C328.778 41.8006 328.658 42.9006 328.418 43.6606C328.218 44.4206 328.118 44.8606 328.118 44.9806C328.118 45.1006 328.278 45.1606 328.598 45.1606Z" fill="white"/>
<path d="M333.661 35.2606C334.621 32.8606 335.521 30.1206 336.361 27.0406C337.201 23.9206 337.621 21.6206 337.621 20.1406C337.621 18.6606 337.481 17.5806 337.201 16.9006C336.961 16.2206 336.661 15.8806 336.301 15.8806C334.981 15.8806 334.101 19.5606 333.661 26.9206V35.2606ZM349.621 41.6806C349.421 41.6806 349.221 41.8006 349.021 42.0406C348.861 42.2406 348.641 42.5006 348.361 42.8206C348.081 43.1006 347.481 43.5006 346.561 44.0206C345.641 44.5006 344.701 44.7406 343.741 44.7406C342.021 44.7406 340.541 44.0606 339.301 42.7006C338.101 41.3006 337.501 40.2606 337.501 39.5806C337.501 38.8606 337.401 38.4606 337.201 38.3806C337.001 38.3806 336.741 38.6806 336.421 39.2806C335.581 40.8406 335.161 42.6806 335.161 44.8006C335.161 46.8806 335.721 48.5006 336.841 49.6606C338.001 50.8606 339.221 51.4606 340.501 51.4606C342.701 51.4606 344.901 50.3206 347.101 48.0406C349.301 45.7206 350.401 43.9806 350.401 42.8206C350.401 42.0606 350.141 41.6806 349.621 41.6806ZM333.721 38.1406V38.5006C333.721 38.9806 333.761 39.2206 333.841 39.2206C333.961 39.2206 334.101 39.1406 334.261 38.9806C335.141 36.4606 336.241 34.2806 337.561 32.4406C338.881 30.5606 340.321 29.6206 341.881 29.6206C343.281 29.6206 343.981 30.5606 343.981 32.4406C343.981 33.1206 343.641 34.0606 342.961 35.2606C342.321 36.4206 341.701 37.0006 341.101 37.0006C340.861 37.0006 340.621 36.8206 340.381 36.4606C340.141 36.0606 339.721 35.8606 339.121 35.8606C337.961 35.8606 336.981 36.3806 336.181 37.4206C335.381 38.4206 334.801 39.7206 334.441 41.3206C333.881 44.0406 333.601 46.6406 333.601 49.1206C333.601 50.3206 333.061 50.9206 331.981 50.9206C331.781 50.9206 331.681 50.7406 331.681 50.3806C331.841 47.7806 331.921 44.5206 331.921 40.6006V32.0806C331.921 24.6806 332.181 19.6406 332.701 16.9606C333.301 14.0006 334.061 12.0806 334.981 11.2006C335.541 10.6806 336.201 10.4206 336.961 10.4206C339.121 10.4206 340.201 12.0406 340.201 15.2806C340.201 18.5206 339.441 22.5006 337.921 27.2206C336.441 31.9406 335.041 35.5806 333.721 38.1406Z" fill="white"/>
<path d="M349.23 30.3406C348.63 29.6606 348.331 28.8206 348.331 27.8206C348.331 26.8206 348.63 25.9806 349.23 25.3006C349.87 24.6206 350.65 24.2806 351.57 24.2806C352.49 24.2806 353.25 24.6206 353.85 25.3006C354.49 25.9806 354.811 26.8206 354.811 27.8206C354.811 28.8206 354.49 29.6606 353.85 30.3406C353.25 31.0206 352.49 31.3606 351.57 31.3606C350.65 31.3606 349.87 31.0206 349.23 30.3406ZM361.711 43.4206C362.111 43.1006 362.47 42.9406 362.79 42.9406C363.35 42.9406 363.631 43.3006 363.631 44.0206C363.631 45.0206 362.391 46.5206 359.911 48.5206C357.431 50.4806 355.291 51.4606 353.491 51.4606C351.691 51.4606 350.29 50.8206 349.29 49.5406C348.29 48.2606 347.79 46.6206 347.79 44.6206C347.79 42.5806 348.131 40.6206 348.811 38.7406C349.491 36.8606 350.17 35.9206 350.85 35.9206C351.17 35.9606 351.331 36.4606 351.331 37.4206C351.331 38.3406 351.471 39.3606 351.751 40.4806C352.031 41.6006 352.631 42.6806 353.551 43.7206C354.511 44.7206 355.731 45.2206 357.211 45.2206C358.731 45.2206 360.231 44.6206 361.711 43.4206Z" fill="white"/>
</svg>
